<svg xmlns="http://www.w3.org/2000/svg" xmlns:xlink="http://www.w3.org/1999/xlink" width="500" zoomAndPan="magnify" viewBox="0 0 375 374.999991" height="500" preserveAspectRatio="xMidYMid meet" version="1.0"><defs><g/><clipPath id="31f4706d16"><path d="M 131.25 182.601562 L 261.769531 182.601562 L 261.769531 233.894531 L 131.25 233.894531 Z M 131.25 182.601562 " clip-rule="nonzero"/></clipPath><clipPath id="ba66c35179"><path d="M 0.25 0.601562 L 130.769531 0.601562 L 130.769531 51.894531 L 0.25 51.894531 Z M 0.25 0.601562 " clip-rule="nonzero"/></clipPath><clipPath id="99917d5120"><rect x="0" width="131" y="0" height="52"/></clipPath><clipPath id="aa3bca3116"><rect x="0" width="126" y="0" height="86"/></clipPath></defs><path fill="#000000" d="M 293.386719 375 L 42.289062 375 C 31.964844 375 23.617188 366.652344 23.617188 356.328125 L 23.617188 18.453125 C 23.617188 8.347656 31.964844 0 42.289062 0 L 236.050781 0 L 236.050781 56.898438 C 236.050781 67.222656 244.398438 75.570312 254.722656 75.570312 L 312.28125 75.570312 L 312.28125 157.511719 C 310.523438 157.292969 308.546875 157.074219 306.789062 157.074219 L 51.734375 157.074219 C 45.804688 157.074219 40.75 162.125 40.75 168.058594 L 40.75 250.21875 C 40.75 256.371094 45.804688 261.203125 51.734375 261.203125 L 306.789062 261.203125 C 308.546875 261.203125 310.523438 261.203125 312.28125 260.984375 L 312.28125 356.105469 C 312.28125 366.433594 303.933594 375 293.386719 375 Z M 284.160156 278.339844 L 263.289062 278.339844 C 258.457031 278.339844 258.457031 270.871094 263.289062 270.871094 L 284.160156 270.871094 C 288.992188 270.871094 288.992188 278.339844 284.160156 278.339844 Z M 249.011719 278.339844 L 192.773438 278.339844 C 187.9375 278.339844 187.9375 270.871094 192.773438 270.871094 L 249.011719 270.871094 C 253.625 270.871094 253.625 278.339844 249.011719 278.339844 Z M 178.492188 278.339844 L 157.402344 278.339844 C 152.570312 278.339844 152.570312 270.871094 157.402344 270.871094 L 178.492188 270.871094 C 183.324219 270.871094 183.324219 278.339844 178.492188 278.339844 Z M 143.125 278.339844 L 87.105469 278.339844 C 82.273438 278.339844 82.273438 270.871094 87.105469 270.871094 L 143.125 270.871094 C 147.957031 270.871094 147.957031 278.339844 143.125 278.339844 Z M 72.824219 278.339844 L 51.734375 278.339844 C 46.902344 278.339844 46.902344 270.871094 51.734375 270.871094 L 72.824219 270.871094 C 77.65625 270.871094 77.65625 278.339844 72.824219 278.339844 Z M 284.160156 304.921875 L 263.289062 304.921875 C 258.457031 304.921875 258.457031 297.453125 263.289062 297.453125 L 284.160156 297.453125 C 288.992188 297.453125 288.992188 304.921875 284.160156 304.921875 Z M 249.011719 304.921875 L 227.921875 304.921875 C 223.089844 304.921875 223.089844 297.453125 227.921875 297.453125 L 249.011719 297.453125 C 253.625 297.453125 253.625 304.921875 249.011719 304.921875 Z M 213.640625 304.921875 L 192.773438 304.921875 C 187.9375 304.921875 187.9375 297.453125 192.773438 297.453125 L 213.640625 297.453125 C 218.476562 297.453125 218.476562 304.921875 213.640625 304.921875 Z M 178.492188 304.921875 L 157.402344 304.921875 C 152.570312 304.921875 152.570312 297.453125 157.402344 297.453125 L 178.492188 297.453125 C 183.324219 297.453125 183.324219 304.921875 178.492188 304.921875 Z M 143.125 304.921875 L 122.253906 304.921875 C 117.421875 304.921875 117.421875 297.453125 122.253906 297.453125 L 143.125 297.453125 C 147.957031 297.453125 147.957031 304.921875 143.125 304.921875 Z M 107.972656 304.921875 L 87.105469 304.921875 C 82.273438 304.921875 82.273438 297.453125 87.105469 297.453125 L 107.972656 297.453125 C 112.808594 297.453125 112.808594 304.921875 107.972656 304.921875 Z M 72.824219 304.921875 L 51.734375 304.921875 C 46.902344 304.921875 46.902344 297.453125 51.734375 297.453125 L 72.824219 297.453125 C 77.65625 297.453125 77.65625 304.921875 72.824219 304.921875 Z M 284.160156 331.503906 L 263.289062 331.503906 C 258.457031 331.503906 258.457031 324.035156 263.289062 324.035156 L 284.160156 324.035156 C 288.992188 324.035156 288.992188 331.503906 284.160156 331.503906 Z M 178.492188 331.503906 L 157.402344 331.503906 C 152.570312 331.503906 152.570312 324.035156 157.402344 324.035156 L 178.492188 324.035156 C 183.324219 324.035156 183.324219 331.503906 178.492188 331.503906 Z M 143.125 331.503906 L 87.105469 331.503906 C 82.273438 331.503906 82.273438 324.035156 87.105469 324.035156 L 143.125 324.035156 C 147.957031 324.035156 147.957031 331.503906 143.125 331.503906 Z M 284.160156 358.085938 L 263.289062 358.085938 C 258.457031 358.085938 258.457031 350.613281 263.289062 350.613281 L 284.160156 350.613281 C 288.992188 350.613281 288.992188 358.085938 284.160156 358.085938 Z M 249.011719 358.085938 L 227.921875 358.085938 C 223.089844 358.085938 223.089844 350.613281 227.921875 350.613281 L 249.011719 350.613281 C 253.625 350.613281 253.625 358.085938 249.011719 358.085938 Z M 213.640625 358.085938 L 192.773438 358.085938 C 187.9375 358.085938 187.9375 350.613281 192.773438 350.613281 L 213.640625 350.613281 C 218.476562 350.613281 218.476562 358.085938 213.640625 358.085938 Z M 178.492188 358.085938 L 157.402344 358.085938 C 152.570312 358.085938 152.570312 350.613281 157.402344 350.613281 L 178.492188 350.613281 C 183.324219 350.613281 183.324219 358.085938 178.492188 358.085938 Z M 143.125 358.085938 L 122.253906 358.085938 C 117.421875 358.085938 117.421875 350.613281 122.253906 350.613281 L 143.125 350.613281 C 147.957031 350.613281 147.957031 358.085938 143.125 358.085938 Z M 107.972656 358.085938 L 87.105469 358.085938 C 82.273438 358.085938 82.273438 350.613281 87.105469 350.613281 L 107.972656 350.613281 C 112.808594 350.613281 112.808594 358.085938 107.972656 358.085938 Z M 72.824219 358.085938 L 51.734375 358.085938 C 46.902344 358.085938 46.902344 350.613281 51.734375 350.613281 L 72.824219 350.613281 C 77.65625 350.613281 77.65625 358.085938 72.824219 358.085938 Z M 72.824219 331.503906 L 51.734375 331.503906 C 46.902344 331.503906 46.902344 324.035156 51.734375 324.035156 L 72.824219 324.035156 C 77.65625 324.035156 77.65625 331.503906 72.824219 331.503906 Z M 249.011719 331.503906 L 192.773438 331.503906 C 187.9375 331.503906 187.9375 324.035156 192.773438 324.035156 L 249.011719 324.035156 C 253.625 324.035156 253.625 331.503906 249.011719 331.503906 Z M 217.378906 71.175781 L 51.734375 71.175781 C 49.757812 71.175781 48.21875 69.421875 48.21875 67.441406 L 48.21875 21.308594 C 48.21875 19.332031 49.757812 17.792969 51.734375 17.792969 L 217.378906 17.792969 C 219.355469 17.792969 220.890625 19.332031 220.890625 21.308594 L 220.890625 67.441406 C 220.890625 69.421875 219.355469 71.175781 217.378906 71.175781 Z M 55.46875 63.707031 L 213.640625 63.707031 L 213.640625 25.042969 L 55.46875 25.042969 Z M 284.160156 93.585938 L 263.289062 93.585938 C 258.457031 93.585938 258.457031 86.335938 263.289062 86.335938 L 284.160156 86.335938 C 288.992188 86.335938 288.992188 93.585938 284.160156 93.585938 Z M 249.011719 93.585938 L 192.773438 93.585938 C 187.9375 93.585938 187.9375 86.335938 192.773438 86.335938 L 249.011719 86.335938 C 253.625 86.335938 253.625 93.585938 249.011719 93.585938 Z M 178.492188 93.585938 L 157.402344 93.585938 C 152.570312 93.585938 152.570312 86.335938 157.402344 86.335938 L 178.492188 86.335938 C 183.324219 86.335938 183.324219 93.585938 178.492188 93.585938 Z M 143.125 93.585938 L 87.105469 93.585938 C 82.273438 93.585938 82.273438 86.335938 87.105469 86.335938 L 143.125 86.335938 C 147.957031 86.335938 147.957031 93.585938 143.125 93.585938 Z M 72.824219 93.585938 L 51.734375 93.585938 C 46.902344 93.585938 46.902344 86.335938 51.734375 86.335938 L 72.824219 86.335938 C 77.65625 86.335938 77.65625 93.585938 72.824219 93.585938 Z M 284.160156 120.167969 L 263.289062 120.167969 C 258.457031 120.167969 258.457031 112.917969 263.289062 112.917969 L 284.160156 112.917969 C 288.992188 112.917969 288.992188 120.167969 284.160156 120.167969 Z M 249.011719 120.167969 L 227.921875 120.167969 C 223.089844 120.167969 223.089844 112.917969 227.921875 112.917969 L 249.011719 112.917969 C 253.625 112.917969 253.625 120.167969 249.011719 120.167969 Z M 213.640625 120.167969 L 192.773438 120.167969 C 187.9375 120.167969 187.9375 112.917969 192.773438 112.917969 L 213.640625 112.917969 C 218.476562 112.917969 218.476562 120.167969 213.640625 120.167969 Z M 178.492188 120.167969 L 157.402344 120.167969 C 152.570312 120.167969 152.570312 112.917969 157.402344 112.917969 L 178.492188 112.917969 C 183.324219 112.917969 183.324219 120.167969 178.492188 120.167969 Z M 143.125 120.167969 L 122.253906 120.167969 C 117.421875 120.167969 117.421875 112.917969 122.253906 112.917969 L 143.125 112.917969 C 147.957031 112.917969 147.957031 120.167969 143.125 120.167969 Z M 107.972656 120.167969 L 87.105469 120.167969 C 82.273438 120.167969 82.273438 112.917969 87.105469 112.917969 L 107.972656 112.917969 C 112.808594 112.917969 112.808594 120.167969 107.972656 120.167969 Z M 72.824219 120.167969 L 51.734375 120.167969 C 46.902344 120.167969 46.902344 112.917969 51.734375 112.917969 L 72.824219 112.917969 C 77.65625 112.917969 77.65625 120.167969 72.824219 120.167969 Z M 284.160156 146.75 L 263.289062 146.75 C 258.457031 146.75 258.457031 139.5 263.289062 139.5 L 284.160156 139.5 C 288.992188 139.5 288.992188 146.75 284.160156 146.75 Z M 178.492188 146.75 L 157.402344 146.75 C 152.570312 146.75 152.570312 139.5 157.402344 139.5 L 178.492188 139.5 C 183.324219 139.5 183.324219 146.75 178.492188 146.75 Z M 143.125 146.75 L 87.105469 146.75 C 82.273438 146.75 82.273438 139.5 87.105469 139.5 L 143.125 139.5 C 147.957031 139.5 147.957031 146.75 143.125 146.75 Z M 72.824219 146.75 L 51.734375 146.75 C 46.902344 146.75 46.902344 139.5 51.734375 139.5 L 72.824219 139.5 C 77.65625 139.5 77.65625 146.75 72.824219 146.75 Z M 249.011719 146.75 L 192.773438 146.75 C 187.9375 146.75 187.9375 139.5 192.773438 139.5 L 249.011719 139.5 C 253.625 139.5 253.625 146.75 249.011719 146.75 Z M 243.519531 2.195312 L 310.082031 68.101562 L 254.722656 68.101562 C 248.570312 68.101562 243.519531 63.050781 243.519531 56.898438 Z M 243.519531 2.195312 " fill-opacity="1" fill-rule="evenodd"/><path fill="#000000" d="M 306.789062 253.953125 L 51.734375 253.953125 C 49.757812 253.953125 48.21875 252.417969 48.21875 250.21875 L 48.21875 168.058594 C 48.21875 166.082031 49.757812 164.542969 51.734375 164.542969 L 306.789062 164.542969 C 331.394531 164.542969 351.382812 184.535156 351.382812 209.140625 C 351.382812 233.964844 331.394531 253.953125 306.789062 253.953125 Z M 257.140625 232.644531 L 234.953125 232.644531 C 232.972656 232.644531 231.21875 231.105469 231.21875 228.910156 L 231.21875 189.367188 C 231.21875 187.390625 232.972656 185.851562 234.953125 185.851562 C 236.929688 185.851562 238.6875 187.390625 238.6875 189.367188 L 238.6875 225.394531 L 257.140625 225.394531 C 259.117188 225.394531 260.875 226.933594 260.875 228.910156 C 260.875 231.105469 259.117188 232.644531 257.140625 232.644531 Z M 199.144531 232.644531 C 187.0625 232.644531 177.175781 222.101562 177.175781 209.140625 C 177.175781 196.398438 187.0625 185.851562 199.144531 185.851562 C 211.226562 185.851562 220.890625 196.398438 220.890625 209.140625 C 220.890625 222.101562 211.226562 232.644531 199.144531 232.644531 Z M 199.144531 193.101562 C 191.015625 193.101562 184.644531 200.351562 184.644531 209.140625 C 184.644531 218.144531 191.015625 225.394531 199.144531 225.394531 C 207.050781 225.394531 213.640625 218.144531 213.640625 209.140625 C 213.640625 200.351562 207.050781 193.101562 199.144531 193.101562 Z M 151.910156 232.644531 C 147.738281 232.644531 144.003906 231.328125 141.148438 229.128906 C 139.609375 227.8125 139.390625 225.613281 140.488281 224.078125 C 141.804688 222.539062 144.222656 222.101562 145.761719 223.417969 C 147.515625 224.957031 150.375 225.613281 153.230469 225.175781 C 156.964844 224.738281 159.160156 222.320312 159.601562 220.121094 C 159.820312 217.488281 158.5 215.289062 155.644531 213.972656 C 154.546875 213.3125 153.449219 213.09375 152.132812 212.875 C 151.03125 212.652344 150.152344 212.214844 149.054688 211.996094 C 142.027344 209.578125 138.070312 204.085938 138.730469 197.714844 C 139.609375 191.5625 144.882812 186.730469 151.691406 185.851562 C 156.746094 185.414062 161.796875 186.730469 165.09375 189.808594 C 166.628906 191.125 166.628906 193.320312 165.3125 194.859375 C 163.992188 196.398438 161.796875 196.617188 160.257812 195.296875 C 158.5 193.542969 155.425781 192.882812 152.351562 193.101562 C 148.394531 193.542969 146.417969 196.175781 146.199219 198.59375 C 145.761719 201.449219 147.738281 203.867188 151.472656 204.964844 C 152.351562 205.402344 153.007812 205.625 153.886719 205.625 C 155.425781 206.0625 156.964844 206.503906 158.722656 207.382812 C 164.652344 210.238281 167.726562 215.507812 166.628906 221.222656 C 165.75 227.371094 160.699219 231.765625 154.109375 232.425781 C 153.230469 232.644531 152.570312 232.644531 151.910156 232.644531 Z M 151.910156 232.644531 " fill-opacity="1" fill-rule="evenodd"/><g fill="#ffffff" fill-opacity="1"><g transform="translate(267.221267, 230.24619)"><g><path d="M 6.3125 0.171875 C 5.3125 0.171875 4.421875 -0.0546875 3.640625 -0.515625 C 2.859375 -0.984375 2.242188 -1.65625 1.796875 -2.53125 C 1.359375 -3.414062 1.140625 -4.476562 1.140625 -5.71875 C 1.140625 -6.945312 1.359375 -8.003906 1.796875 -8.890625 C 2.242188 -9.773438 2.859375 -10.445312 3.640625 -10.90625 C 4.421875 -11.363281 5.3125 -11.59375 6.3125 -11.59375 C 7.382812 -11.59375 8.273438 -11.390625 8.984375 -10.984375 C 9.691406 -10.578125 10.203125 -9.96875 10.515625 -9.15625 L 9.65625 -8.59375 L 9.453125 -8.59375 C 9.140625 -9.238281 8.734375 -9.695312 8.234375 -9.96875 C 7.734375 -10.25 7.09375 -10.390625 6.3125 -10.390625 C 5.59375 -10.390625 4.953125 -10.226562 4.390625 -9.90625 C 3.835938 -9.582031 3.394531 -9.070312 3.0625 -8.375 C 2.738281 -7.6875 2.578125 -6.800781 2.578125 -5.71875 C 2.578125 -4.632812 2.738281 -3.742188 3.0625 -3.046875 C 3.394531 -2.359375 3.835938 -1.851562 4.390625 -1.53125 C 4.953125 -1.207031 5.59375 -1.046875 6.3125 -1.046875 C 7.144531 -1.046875 7.820312 -1.234375 8.34375 -1.609375 C 8.875 -1.984375 9.265625 -2.585938 9.515625 -3.421875 L 9.71875 -3.421875 L 10.609375 -2.96875 C 10.335938 -1.957031 9.835938 -1.179688 9.109375 -0.640625 C 8.378906 -0.0976562 7.445312 0.171875 6.3125 0.171875 Z M 6.3125 0.171875 "/></g></g></g><g fill="#ffffff" fill-opacity="1"><g transform="translate(278.421656, 230.24619)"><g><path d="M 3.078125 -11.421875 L 3.078125 -1.109375 L 8.578125 -1.109375 L 8.578125 0 L 1.734375 0 L 1.734375 -11.421875 Z M 3.078125 -11.421875 "/></g></g></g><g fill="#ffffff" fill-opacity="1"><g transform="translate(287.083574, 230.24619)"><g><path d="M 6.265625 0.171875 C 5.273438 0.171875 4.394531 -0.0390625 3.625 -0.46875 C 2.851562 -0.90625 2.242188 -1.5625 1.796875 -2.4375 C 1.359375 -3.3125 1.140625 -4.40625 1.140625 -5.71875 C 1.140625 -7.019531 1.359375 -8.109375 1.796875 -8.984375 C 2.242188 -9.867188 2.851562 -10.523438 3.625 -10.953125 C 4.394531 -11.378906 5.273438 -11.59375 6.265625 -11.59375 C 7.253906 -11.59375 8.132812 -11.378906 8.90625 -10.953125 C 9.675781 -10.523438 10.28125 -9.867188 10.71875 -8.984375 C 11.164062 -8.109375 11.390625 -7.019531 11.390625 -5.71875 C 11.390625 -4.40625 11.164062 -3.3125 10.71875 -2.4375 C 10.28125 -1.5625 9.675781 -0.90625 8.90625 -0.46875 C 8.132812 -0.0390625 7.253906 0.171875 6.265625 0.171875 Z M 6.265625 -1.078125 C 7.453125 -1.078125 8.363281 -1.445312 9 -2.1875 C 9.632812 -2.9375 9.953125 -4.113281 9.953125 -5.71875 C 9.953125 -7.320312 9.632812 -8.492188 9 -9.234375 C 8.363281 -9.972656 7.453125 -10.34375 6.265625 -10.34375 C 3.804688 -10.34375 2.578125 -8.800781 2.578125 -5.71875 C 2.578125 -2.625 3.804688 -1.078125 6.265625 -1.078125 Z M 6.265625 -1.078125 "/></g></g></g><g fill="#ffffff" fill-opacity="1"><g transform="translate(299.611764, 230.24619)"><g><path d="M 5 0.171875 C 4.28125 0.171875 3.632812 0.0703125 3.0625 -0.125 C 2.488281 -0.320312 2.007812 -0.578125 1.625 -0.890625 C 1.25 -1.210938 0.96875 -1.566406 0.78125 -1.953125 L 1.515625 -2.84375 L 1.71875 -2.84375 C 2.425781 -1.644531 3.519531 -1.046875 5 -1.046875 C 5.851562 -1.046875 6.488281 -1.222656 6.90625 -1.578125 C 7.332031 -1.941406 7.546875 -2.445312 7.546875 -3.09375 C 7.546875 -3.46875 7.472656 -3.785156 7.328125 -4.046875 C 7.191406 -4.304688 6.960938 -4.523438 6.640625 -4.703125 C 6.328125 -4.890625 5.898438 -5.050781 5.359375 -5.1875 L 4.015625 -5.515625 C 3.023438 -5.753906 2.289062 -6.132812 1.8125 -6.65625 C 1.34375 -7.1875 1.109375 -7.851562 1.109375 -8.65625 C 1.109375 -9.21875 1.253906 -9.722656 1.546875 -10.171875 C 1.835938 -10.617188 2.265625 -10.96875 2.828125 -11.21875 C 3.390625 -11.46875 4.0625 -11.59375 4.84375 -11.59375 C 5.707031 -11.59375 6.429688 -11.46875 7.015625 -11.21875 C 7.609375 -10.976562 8.082031 -10.617188 8.4375 -10.140625 L 7.78125 -9.25 L 7.59375 -9.25 C 7.257812 -9.65625 6.867188 -9.953125 6.421875 -10.140625 C 5.972656 -10.328125 5.445312 -10.421875 4.84375 -10.421875 C 4.050781 -10.421875 3.453125 -10.265625 3.046875 -9.953125 C 2.648438 -9.648438 2.453125 -9.226562 2.453125 -8.6875 C 2.453125 -8.164062 2.597656 -7.753906 2.890625 -7.453125 C 3.191406 -7.148438 3.691406 -6.914062 4.390625 -6.75 L 5.765625 -6.421875 C 6.867188 -6.160156 7.671875 -5.757812 8.171875 -5.21875 C 8.671875 -4.675781 8.921875 -3.988281 8.921875 -3.15625 C 8.921875 -2.507812 8.773438 -1.9375 8.484375 -1.4375 C 8.191406 -0.9375 7.75 -0.539062 7.15625 -0.25 C 6.570312 0.03125 5.851562 0.171875 5 0.171875 Z M 5 0.171875 "/></g></g></g><g fill="#ffffff" fill-opacity="1"><g transform="translate(309.398442, 230.24619)"><g><path d="M 3.078125 -5.390625 L 3.078125 -1.109375 L 8.890625 -1.109375 L 8.890625 0 L 1.734375 0 L 1.734375 -11.421875 L 8.765625 -11.421875 L 8.765625 -10.3125 L 3.078125 -10.3125 L 3.078125 -6.5 L 8.09375 -6.5 L 8.09375 -5.390625 Z M 3.078125 -5.390625 "/></g></g></g><g fill="#ffffff" fill-opacity="1"><g transform="translate(319.044529, 230.24619)"><g><path d="M 1.734375 0 L 1.734375 -11.421875 L 5.875 -11.421875 C 6.644531 -11.421875 7.289062 -11.296875 7.8125 -11.046875 C 8.332031 -10.796875 8.722656 -10.4375 8.984375 -9.96875 C 9.242188 -9.507812 9.375 -8.96875 9.375 -8.34375 C 9.375 -7.632812 9.195312 -7.046875 8.84375 -6.578125 C 8.488281 -6.117188 7.9375 -5.773438 7.1875 -5.546875 L 7.1875 -5.390625 C 7.550781 -5.242188 7.847656 -5.015625 8.078125 -4.703125 C 8.316406 -4.390625 8.535156 -3.921875 8.734375 -3.296875 L 9.796875 0 L 8.40625 0 L 7.265625 -3.5 C 7.128906 -3.90625 6.972656 -4.222656 6.796875 -4.453125 C 6.617188 -4.691406 6.394531 -4.863281 6.125 -4.96875 C 5.851562 -5.070312 5.507812 -5.125 5.09375 -5.125 L 3.078125 -5.125 L 3.078125 0 Z M 5.84375 -6.265625 C 6.5625 -6.265625 7.09375 -6.429688 7.4375 -6.765625 C 7.789062 -7.097656 7.96875 -7.601562 7.96875 -8.28125 C 7.96875 -8.957031 7.789062 -9.457031 7.4375 -9.78125 C 7.09375 -10.113281 6.5625 -10.28125 5.84375 -10.28125 L 3.078125 -10.28125 L 3.078125 -6.265625 Z M 5.84375 -6.265625 "/></g></g></g><g clip-path="url(#31f4706d16)"><g transform="matrix(1, 0, 0, 1, 131, 182)"><g clip-path="url(#99917d5120)"><g clip-path="url(#ba66c35179)"><path fill="#000000" d="M 0.25 0.601562 L 130.6875 0.601562 L 130.6875 51.894531 L 0.25 51.894531 Z M 0.25 0.601562 " fill-opacity="1" fill-rule="nonzero"/></g></g></g></g><g transform="matrix(1, 0, 0, 1, 131, 165)"><g clip-path="url(#aa3bca3116)"><g fill="#ffffff" fill-opacity="1"><g transform="translate(0.249996, 67.518701)"><g><path d="M 16.964844 1.8125 C 22.667969 1.8125 27.71875 0.832031 32.175781 -1.1875 C 38 -3.804688 40.910156 -7.695312 40.910156 -12.804688 C 40.910156 -16.996094 39.484375 -20.292969 36.691406 -22.667969 C 34.136719 -24.808594 30.660156 -26.027344 26.265625 -26.382812 C 23.738281 -26.5 21.214844 -26.652344 18.6875 -26.800781 C 17.230469 -26.976562 16.132812 -27.332031 15.417969 -27.808594 C 14.707031 -28.285156 14.351562 -28.910156 14.351562 -29.679688 C 14.351562 -31.105469 15.539062 -32.445312 17.914062 -33.691406 C 20.203125 -34.878906 22.640625 -35.503906 25.195312 -35.535156 C 26.144531 -35.535156 27.542969 -35.324219 29.382812 -34.941406 C 31.226562 -34.523438 32.621094 -34.34375 33.574219 -34.34375 C 34.820312 -34.34375 35.832031 -34.792969 36.632812 -35.683594 C 37.347656 -36.453125 37.703125 -37.375 37.703125 -38.414062 C 37.703125 -39.84375 35.921875 -41.121094 32.382812 -42.25 C 29.53125 -43.140625 27.125 -43.585938 25.195312 -43.585938 C 20.292969 -43.585938 15.804688 -41.953125 11.765625 -38.742188 C 7.695312 -35.535156 5.644531 -32 5.585938 -28.136719 C 5.527344 -25.046875 7.308594 -22.699219 10.992188 -21.066406 C 13.695312 -19.847656 16.757812 -19.191406 20.203125 -19.132812 C 24.601562 -19.015625 27.542969 -18.6875 29.027344 -18.125 C 31.078125 -17.320312 32.117188 -15.6875 32.117188 -13.191406 C 32.117188 -11.347656 30.453125 -9.6875 27.15625 -8.171875 C 23.945312 -6.683594 20.648438 -5.941406 17.261719 -5.941406 C 13.28125 -5.941406 10.726562 -7.160156 9.597656 -9.597656 C 8.765625 -11.410156 7.457031 -12.328125 5.675781 -12.328125 C 4.335938 -12.328125 3.296875 -11.914062 2.554688 -11.082031 C 1.78125 -10.25 1.425781 -9.238281 1.425781 -7.992188 C 1.425781 -5.554688 2.644531 -3.386719 5.082031 -1.546875 C 7.960938 0.714844 11.914062 1.8125 16.964844 1.8125 Z M 16.964844 1.8125 "/></g></g></g><g fill="#ffffff" fill-opacity="1"><g transform="translate(42.436349, 67.518701)"><g><path d="M 23.351562 1.8125 C 30.542969 1.8125 36.394531 -1.335938 40.882812 -7.664062 C 44.746094 -13.132812 46.707031 -19.222656 46.707031 -25.96875 C 46.707031 -32.324219 44.980469 -37.078125 41.535156 -40.257812 C 38.089844 -43.40625 32.890625 -45.011719 25.996094 -45.011719 C 18.808594 -45.011719 12.835938 -41.890625 8.109375 -35.652344 C 3.890625 -30.097656 1.78125 -23.945312 1.78125 -17.230469 C 1.78125 -11.496094 3.980469 -6.832031 8.378906 -3.238281 C 12.476562 0.148438 17.46875 1.8125 23.351562 1.8125 Z M 25.996094 -36.960938 C 30.511719 -36.960938 33.691406 -36.1875 35.472656 -34.644531 C 37.316406 -33.007812 38.265625 -30.125 38.265625 -25.96875 C 38.265625 -20.976562 36.929688 -16.550781 34.257812 -12.65625 C 31.34375 -8.378906 27.691406 -6.238281 23.351562 -6.238281 C 19.609375 -6.238281 16.488281 -7.21875 14.054688 -9.210938 C 11.496094 -11.261719 10.21875 -13.933594 10.21875 -17.230469 C 10.21875 -22.105469 11.675781 -26.53125 14.648438 -30.542969 C 17.796875 -34.820312 21.570312 -36.960938 25.996094 -36.960938 Z M 25.996094 -36.960938 "/></g></g></g><g fill="#ffffff" fill-opacity="1"><g transform="translate(91.010078, 67.518701)"><g><path d="M 30.957031 -1.128906 C 32.683594 -1.902344 33.542969 -3.121094 33.542969 -4.84375 C 33.542969 -5.851562 33.1875 -6.746094 32.503906 -7.578125 C 31.730469 -8.46875 30.722656 -8.941406 29.472656 -8.941406 C 29.058594 -8.941406 28.613281 -8.855469 28.164062 -8.734375 C 20.796875 -6.507812 14.796875 -5.347656 10.101562 -5.289062 C 10.28125 -8.558594 10.488281 -10.964844 10.667969 -12.566406 C 11.199219 -21.449219 11.46875 -31.167969 11.46875 -41.742188 C 11.46875 -42.871094 11.050781 -43.824219 10.28125 -44.625 C 9.476562 -45.398438 8.496094 -45.8125 7.308594 -45.8125 C 6.121094 -45.8125 5.109375 -45.398438 4.335938 -44.625 C 3.566406 -43.824219 3.179688 -42.871094 3.179688 -41.742188 C 3.179688 -30.542969 2.910156 -20.976562 2.40625 -13.042969 C 2.050781 -7.398438 1.84375 -4.277344 1.8125 -3.625 C 1.8125 0.652344 4.21875 2.761719 9.089844 2.761719 C 11.945312 2.761719 15.628906 2.40625 20.113281 1.632812 C 24.988281 0.832031 28.613281 -0.0898438 30.957031 -1.128906 Z M 30.957031 -1.128906 "/></g></g></g></g></g></svg>